<svg width="48" height="48" viewBox="0 0 48 48" fill="none" xmlns="http://www.w3.org/2000/svg">
<mask id="mask0_30_405" style="mask-type:alpha" maskUnits="userSpaceOnUse" x="0" y="0" width="48" height="48">
<rect opacity="0.7" width="48" height="48" fill="#D9D9D9"/>
</mask>
<g mask="url(#mask0_30_405)">
<path d="M34.7577 40.5231C32.7998 40.5231 31.145 39.8439 29.7931 38.4857C28.4413 37.1275 27.7654 35.4648 27.7654 33.4977C27.7654 31.5306 28.4411 29.8706 29.7925 28.5178C31.1439 27.165 32.7983 26.4886 34.7555 26.4886C36.7127 26.4886 38.3761 27.165 39.7457 28.5178C41.1152 29.8706 41.7999 31.5306 41.7999 33.4977C41.7999 35.4648 41.1192 37.1275 39.7577 38.4857C38.3961 39.8439 36.7295 40.5231 34.7577 40.5231ZM34.7495 37.6038C35.8912 37.6038 36.8652 37.2026 37.6714 36.4002C38.4776 35.5978 38.8807 34.6263 38.8807 33.4855C38.8807 32.3584 38.4791 31.3971 37.6761 30.6014C36.8729 29.8056 35.9005 29.4077 34.7588 29.4077C33.617 29.4077 32.6525 29.8058 31.8653 30.602C31.0781 31.3982 30.6846 32.3623 30.6846 33.4943C30.6846 34.6263 31.0766 35.5942 31.8607 36.3981C32.6447 37.2019 33.6077 37.6038 34.7495 37.6038ZM6.7885 34.9653V32.0462H23.3808V34.9653H6.7885ZM13.2753 21.5115C11.3082 21.5115 9.64558 20.8324 8.28735 19.4742C6.92912 18.116 6.25 16.4533 6.25 14.4862C6.25 12.5191 6.92912 10.8591 8.28735 9.5063C9.64558 8.15347 11.3082 7.47705 13.2753 7.47705C15.2424 7.47705 16.9024 8.15347 18.2552 9.5063C19.6081 10.8591 20.2845 12.5191 20.2845 14.4862C20.2845 16.4533 19.6081 18.116 18.2552 19.4742C16.9024 20.8324 15.2424 21.5115 13.2753 21.5115ZM13.2876 18.5924C14.4146 18.5924 15.376 18.1912 16.1717 17.3888C16.9675 16.5864 17.3654 15.6148 17.3654 14.474C17.3654 13.347 16.9672 12.3856 16.1711 11.5899C15.3749 10.7941 14.4107 10.3963 13.2787 10.3963C12.1467 10.3963 11.1788 10.7944 10.3749 11.5906C9.57112 12.3867 9.1692 13.3508 9.1692 14.4829C9.1692 15.6149 9.5704 16.5828 10.3728 17.3866C11.1752 18.1905 12.1468 18.5924 13.2876 18.5924ZM24.6691 15.9539V13.0347H41.2614V15.9539H24.6691Z" fill="white"/>
</g>
</svg>
