<svg width="48" height="48" viewBox="0 0 48 48" fill="none" xmlns="http://www.w3.org/2000/svg">
<mask id="mask0_30_395" style="mask-type:alpha" maskUnits="userSpaceOnUse" x="0" y="0" width="48" height="48">
<rect opacity="0.7" width="48" height="48" fill="#D9D9D9"/>
</mask>
<g mask="url(#mask0_30_395)">
<path d="M2.06543 40.1153V35.5692C2.06543 34.3843 2.34805 33.3565 2.91328 32.4859C3.47848 31.6153 4.29368 30.9435 5.35888 30.4704C7.58885 29.4876 9.64818 28.7462 11.5369 28.2462C13.4256 27.7462 15.5216 27.4962 17.825 27.4962C20.1283 27.4962 22.216 27.7462 24.0881 28.2462C25.9601 28.7462 28.0183 29.488 30.2625 30.4714C31.2863 30.9347 32.0927 31.6031 32.6818 32.4765C33.2708 33.3499 33.5653 34.3808 33.5653 35.5692V40.1153H2.06543ZM36.9845 40.1153V35.5269C36.9845 33.7808 36.5785 32.238 35.7663 30.8985C34.9542 29.559 33.8462 28.4441 32.4423 27.5539C34.4167 27.8411 36.2859 28.2212 38.0499 28.6943C39.814 29.1674 41.3148 29.7204 42.5523 30.3532C43.5965 30.928 44.4296 31.6671 45.0515 32.5704C45.6735 33.4738 45.9844 34.4593 45.9844 35.5269V40.1153H36.9845ZM17.825 23.1538C15.6752 23.1538 13.9138 22.4672 12.5406 21.094C11.1674 19.7208 10.4808 17.9677 10.4808 15.8347C10.4808 13.7016 11.1674 11.9434 12.5406 10.5599C13.9138 9.17648 15.6669 8.48474 17.8 8.48474C19.933 8.48474 21.6913 9.17459 23.0747 10.5543C24.4582 11.934 25.1499 13.6858 25.1499 15.8097C25.1499 17.9594 24.4601 19.7208 23.0804 21.094C21.7007 22.4672 19.9489 23.1538 17.825 23.1538ZM35.7229 15.8097C35.7229 17.9594 35.0332 19.7208 33.6538 21.094C32.2745 22.4672 30.5208 23.1538 28.3928 23.1538C28.0642 23.1538 27.7044 23.1301 27.3134 23.0827C26.9224 23.0353 26.5807 22.9539 26.2884 22.8385C27.0361 21.9458 27.5948 20.9087 27.9646 19.7272C28.3343 18.5458 28.5192 17.2473 28.5192 15.8316C28.5192 14.4159 28.3269 13.1459 27.9422 12.0214C27.5576 10.897 27.0064 9.81679 26.2884 8.78089C26.5929 8.70716 26.9429 8.63938 27.3384 8.57754C27.7339 8.51568 28.0839 8.48474 28.3883 8.48474C30.5186 8.48474 32.2736 9.17459 33.6533 10.5543C35.033 11.934 35.7229 13.6858 35.7229 15.8097ZM4.98463 37.1961H30.6461V35.5692C30.6461 35.0359 30.5138 34.549 30.2491 34.1086C29.9844 33.6682 29.595 33.332 29.0807 33.1C26.9218 32.1231 25.0115 31.4314 23.35 31.025C21.6884 30.6186 19.8384 30.4154 17.8 30.4154C15.7615 30.4154 13.9064 30.6186 12.2346 31.025C10.5628 31.4314 8.66408 32.1231 6.53848 33.1C6.02425 33.332 5.63671 33.6682 5.37588 34.1086C5.11505 34.549 4.98463 35.0359 4.98463 35.5692V37.1961ZM17.8008 20.2347C19.0592 20.2347 20.1121 19.8158 20.9596 18.9781C21.807 18.1404 22.2307 17.0923 22.2307 15.8339C22.2307 14.5755 21.8049 13.5225 20.9534 12.6751C20.1018 11.8277 19.0468 11.4039 17.7884 11.4039C16.5299 11.4039 15.4839 11.8297 14.6503 12.6812C13.8168 13.5328 13.4 14.5878 13.4 15.8463C13.4 17.1047 13.8188 18.1507 14.6565 18.9843C15.4942 19.8179 16.5423 20.2347 17.8008 20.2347Z" fill="white"/>
</g>
</svg>
