<svg width="37" height="37" viewBox="0 0 37 37" fill="none" xmlns="http://www.w3.org/2000/svg">
<mask id="mask0_1_694" style="mask-type:alpha" maskUnits="userSpaceOnUse" x="0" y="0" width="37" height="37">
<rect x="0.198242" y="0.0484619" width="36.3416" height="36.3416" fill="#D9D9D9"/>
</mask>
<g mask="url(#mask0_1_694)">
<path d="M30.3171 31.6754L20.4542 21.8126C19.6757 22.4792 18.7595 22.9865 17.7055 23.3346C16.6516 23.6827 15.5932 23.8568 14.5304 23.8568C11.7969 23.8568 9.5019 22.9291 7.64538 21.0738C5.78886 19.2186 4.8606 16.9472 4.8606 14.2598C4.8606 11.5725 5.78824 9.30033 7.64353 7.44346C9.49881 5.58658 11.7666 4.65814 14.4469 4.65814C17.1273 4.65814 19.4018 5.58602 21.2706 7.44179C23.1394 9.29753 24.0738 11.5696 24.0738 14.2579C24.0738 15.3438 23.8986 16.3954 23.5482 17.4126C23.1978 18.4298 22.6789 19.3588 21.9917 20.1993L31.9157 30.0622L30.3171 31.6754ZM14.4716 21.6466C16.5525 21.6466 18.3048 20.9349 19.7283 19.5113C21.1519 18.0878 21.8636 16.3365 21.8636 14.2575C21.8636 12.1785 21.153 10.4272 19.7316 9.00364C18.3103 7.58009 16.5581 6.86831 14.4749 6.86831C12.3788 6.86831 10.6208 7.58009 9.20076 9.00364C7.78077 10.4272 7.07077 12.1785 7.07077 14.2575C7.07077 16.3365 7.78077 18.0878 9.20076 19.5113C10.6208 20.9349 12.3777 21.6466 14.4716 21.6466Z" fill="white"/>
</g>
</svg>
